<svg width="16" height="16" viewBox="0 0 16 16" fill="none" xmlns="http://www.w3.org/2000/svg">
<g id="Frame" clip-path="url(#clip0_3904_4122)">
<path id="Vector" d="M11.2687 0.237915H3.6001V15.4879H15.0401V3.98793L11.2687 0.237915Z" fill="#EAEDF1"/>
<path id="Vector_2" d="M11.2685 7.36292H0.959961V12.9879H11.2685V7.36292Z" fill="#F15642"/>
<path id="Vector_3" d="M11.2686 3.98793V0.237915L15.04 3.98793H11.2686Z" fill="#C4C8D2"/>
<path id="Vector_4" d="M2.51172 11.4878V8.84412H3.69218C3.98383 8.84412 4.20635 8.91412 4.35973 9.05412C4.51309 9.19412 4.58977 9.38662 4.58977 9.63162C4.58977 9.8741 4.51309 10.0666 4.35973 10.2091C4.20635 10.3516 3.98383 10.4229 3.69218 10.4229H2.99823V11.4878H2.51172ZM2.99823 10.0404H3.63561C3.79653 10.0404 3.9172 10.0054 3.99765 9.93536C4.07813 9.86287 4.11835 9.76162 4.11835 9.63162C4.11835 9.50161 4.07813 9.4016 3.99765 9.3316C3.9172 9.2591 3.79653 9.22287 3.63561 9.22287H2.99823V10.0404Z" fill="white"/>
<path id="Vector_5" d="M5.13672 11.4878V8.84412H6.10221C6.40643 8.84412 6.66288 8.89662 6.87157 9.00162C7.08277 9.1041 7.24244 9.25412 7.35055 9.4516C7.45865 9.6466 7.51272 9.88412 7.51272 10.1641C7.51272 10.4416 7.45865 10.6791 7.35055 10.8766C7.24244 11.0741 7.08277 11.2253 6.87157 11.3303C6.66288 11.4353 6.40643 11.4878 6.10221 11.4878H5.13672ZM5.62324 11.0866H6.07202C6.39387 11.0866 6.63272 11.0104 6.78861 10.8578C6.94448 10.7054 7.02242 10.4741 7.02242 10.1641C7.02242 9.85161 6.94448 9.62036 6.78861 9.47036C6.63272 9.31785 6.39387 9.2416 6.07202 9.2416H5.62324V11.0866Z" fill="white"/>
<path id="Vector_6" d="M8.12256 11.4878V8.84412H9.87625V9.22287H8.60905V9.97285H9.78952V10.3516H8.60905V11.4878H8.12256Z" fill="white"/>
</g>
<defs>
<clipPath id="clip0_3904_4122">
<rect width="14.08" height="15.4" fill="white" transform="translate(0.959961 0.237915)"/>
</clipPath>
</defs>
</svg>
